<svg xmlns="http://www.w3.org/2000/svg" width="940" height="516" viewBox="0 0 940 516" font-family='system-ui,-apple-system,"Segoe UI",sans-serif' role="img" aria-label="knees">
<rect width="940" height="516" fill="#fcfcfb"/>
<text x="84" y="30" font-size="16" font-weight="600" fill="#0b0b0b">More client boxes move sequencer&#8217;s knee and leave braft&#8217;s where it was</text>
<text x="84" y="50" font-size="12" fill="#52514e">All three on one fleet: 3x c7a.4xlarge nodes + c7a.2xlarge clients (AMD Genoa), leader</text>
<text x="84" y="66" font-size="12" fill="#52514e">pinned to the node the clients share an AZ and placement group with, 100 sender threads in</text>
<text x="84" y="82" font-size="12" fill="#52514e">total throughout. Multi-client percentiles are merged from every client's raw histogram.</text>
<text x="84" y="98" font-size="12" fill="#52514e">Hollow marker = the cluster fell behind the offered rate. Log scale.</text>
<rect x="84" y="381.8" width="812" height="38.2" fill="#f0efec"/>
<text x="92" y="396.8" font-size="11" fill="#898781">at or below 1 ms</text>
<line x1="84" y1="415.0" x2="896" y2="415.0" stroke="#e1e0d9"/>
<text x="74" y="419.0" font-size="11" fill="#898781" text-anchor="end">500 µs</text>
<line x1="84" y1="381.8" x2="896" y2="381.8" stroke="#e1e0d9"/>
<text x="74" y="385.8" font-size="11" fill="#898781" text-anchor="end">1 ms</text>
<line x1="84" y1="348.6" x2="896" y2="348.6" stroke="#e1e0d9"/>
<text x="74" y="352.6" font-size="11" fill="#898781" text-anchor="end">2 ms</text>
<line x1="84" y1="304.7" x2="896" y2="304.7" stroke="#e1e0d9"/>
<text x="74" y="308.7" font-size="11" fill="#898781" text-anchor="end">5 ms</text>
<line x1="84" y1="238.3" x2="896" y2="238.3" stroke="#e1e0d9"/>
<text x="74" y="242.3" font-size="11" fill="#898781" text-anchor="end">20 ms</text>
<line x1="84" y1="161.2" x2="896" y2="161.2" stroke="#e1e0d9"/>
<text x="74" y="165.2" font-size="11" fill="#898781" text-anchor="end">100 ms</text>
<line x1="84" y1="420" x2="896" y2="420" stroke="#c3c2b7"/>
<line x1="84.0" y1="420" x2="84.0" y2="425" stroke="#c3c2b7"/>
<text x="84.0" y="440" font-size="11" fill="#898781" text-anchor="middle">0k</text>
<line x1="168.6" y1="420" x2="168.6" y2="425" stroke="#c3c2b7"/>
<text x="168.6" y="440" font-size="11" fill="#898781" text-anchor="middle">50k</text>
<line x1="253.2" y1="420" x2="253.2" y2="425" stroke="#c3c2b7"/>
<text x="253.2" y="440" font-size="11" fill="#898781" text-anchor="middle">100k</text>
<line x1="337.8" y1="420" x2="337.8" y2="425" stroke="#c3c2b7"/>
<text x="337.8" y="440" font-size="11" fill="#898781" text-anchor="middle">150k</text>
<line x1="422.3" y1="420" x2="422.3" y2="425" stroke="#c3c2b7"/>
<text x="422.3" y="440" font-size="11" fill="#898781" text-anchor="middle">200k</text>
<line x1="506.9" y1="420" x2="506.9" y2="425" stroke="#c3c2b7"/>
<text x="506.9" y="440" font-size="11" fill="#898781" text-anchor="middle">250k</text>
<line x1="591.5" y1="420" x2="591.5" y2="425" stroke="#c3c2b7"/>
<text x="591.5" y="440" font-size="11" fill="#898781" text-anchor="middle">300k</text>
<line x1="676.1" y1="420" x2="676.1" y2="425" stroke="#c3c2b7"/>
<text x="676.1" y="440" font-size="11" fill="#898781" text-anchor="middle">350k</text>
<line x1="760.7" y1="420" x2="760.7" y2="425" stroke="#c3c2b7"/>
<text x="760.7" y="440" font-size="11" fill="#898781" text-anchor="middle">400k</text>
<line x1="845.2" y1="420" x2="845.2" y2="425" stroke="#c3c2b7"/>
<text x="845.2" y="440" font-size="11" fill="#898781" text-anchor="middle">450k</text>
<text x="490" y="462" font-size="11" fill="#52514e" text-anchor="middle">offered rate across the whole fleet (requests/sec)</text>
<line x1="434.2" y1="128" x2="434.2" y2="420" stroke="#898781" stroke-width="1" stroke-dasharray="4 4"/>
<text x="440.2" y="144" font-size="11" font-weight="600" fill="#52514e" text-anchor="start">braft knee, either way</text>
<line x1="862.2" y1="128" x2="862.2" y2="420" stroke="#898781" stroke-width="1" stroke-dasharray="4 4"/>
<text x="856.2" y="160" font-size="11" font-weight="600" fill="#52514e" text-anchor="end">sequencer knee</text>
<defs><clipPath id="p"><rect x="78" y="122" width="824" height="304"/></clipPath></defs>
<g clip-path="url(#p)">
<path d="M151.7,410.6 L202.4,406.5 L253.2,403.1 L303.9,395.5 L354.7,388.6 L422.3,379.5 L506.9,-22.4 L591.5,-56.5 L676.1,-75.2" fill="none" stroke="#2a78d6" stroke-width="2" stroke-linejoin="round"/>
<circle cx="151.7" cy="410.6" r="4.5" fill="#2a78d6" stroke="#fcfcfb" stroke-width="2"/>
<circle cx="202.4" cy="406.5" r="4.5" fill="#2a78d6" stroke="#fcfcfb" stroke-width="2"/>
<circle cx="253.2" cy="403.1" r="4.5" fill="#2a78d6" stroke="#fcfcfb" stroke-width="2"/>
<circle cx="303.9" cy="395.5" r="4.5" fill="#2a78d6" stroke="#fcfcfb" stroke-width="2"/>
<circle cx="354.7" cy="388.6" r="4.5" fill="#2a78d6" stroke="#fcfcfb" stroke-width="2"/>
<circle cx="422.3" cy="379.5" r="4.5" fill="#2a78d6" stroke="#fcfcfb" stroke-width="2"/>
<circle cx="506.9" cy="-22.4" r="4.5" fill="#fcfcfb" stroke="#2a78d6" stroke-width="2"/>
<circle cx="591.5" cy="-56.5" r="4.5" fill="#fcfcfb" stroke="#2a78d6" stroke-width="2"/>
<circle cx="676.1" cy="-75.2" r="4.5" fill="#fcfcfb" stroke="#2a78d6" stroke-width="2"/>
<path d="M151.7,414.1 L202.4,408.9 L253.2,401.0 L303.9,393.0 L354.7,386.3 L422.3,369.9 L506.9,162.5 L591.5,149.9 L676.1,144.3" fill="none" stroke="#eb6834" stroke-width="2" stroke-linejoin="round"/>
<circle cx="151.7" cy="414.1" r="4.5" fill="#eb6834" stroke="#fcfcfb" stroke-width="2"/>
<circle cx="202.4" cy="408.9" r="4.5" fill="#eb6834" stroke="#fcfcfb" stroke-width="2"/>
<circle cx="253.2" cy="401.0" r="4.5" fill="#eb6834" stroke="#fcfcfb" stroke-width="2"/>
<circle cx="303.9" cy="393.0" r="4.5" fill="#eb6834" stroke="#fcfcfb" stroke-width="2"/>
<circle cx="354.7" cy="386.3" r="4.5" fill="#eb6834" stroke="#fcfcfb" stroke-width="2"/>
<circle cx="422.3" cy="369.9" r="4.5" fill="#eb6834" stroke="#fcfcfb" stroke-width="2"/>
<circle cx="506.9" cy="162.5" r="4.5" fill="#fcfcfb" stroke="#eb6834" stroke-width="2"/>
<circle cx="591.5" cy="149.9" r="4.5" fill="#fcfcfb" stroke="#eb6834" stroke-width="2"/>
<circle cx="676.1" cy="144.3" r="4.5" fill="#fcfcfb" stroke="#eb6834" stroke-width="2"/>
<path d="M126.3,408.2 L177.0,403.4 L227.8,395.0 L253.2,393.5 L303.9,390.4 L354.7,387.0 L422.3,381.9 L506.9,374.3 L591.5,364.3 L676.1,352.3 L760.7,323.8 L845.2,148.0" fill="none" stroke="#1baf7a" stroke-width="2" stroke-linejoin="round"/>
<circle cx="126.3" cy="408.2" r="4.5" fill="#1baf7a" stroke="#fcfcfb" stroke-width="2"/>
<circle cx="177.0" cy="403.4" r="4.5" fill="#1baf7a" stroke="#fcfcfb" stroke-width="2"/>
<circle cx="227.8" cy="395.0" r="4.5" fill="#1baf7a" stroke="#fcfcfb" stroke-width="2"/>
<circle cx="253.2" cy="393.5" r="4.5" fill="#1baf7a" stroke="#fcfcfb" stroke-width="2"/>
<circle cx="303.9" cy="390.4" r="4.5" fill="#1baf7a" stroke="#fcfcfb" stroke-width="2"/>
<circle cx="354.7" cy="387.0" r="4.5" fill="#1baf7a" stroke="#fcfcfb" stroke-width="2"/>
<circle cx="422.3" cy="381.9" r="4.5" fill="#1baf7a" stroke="#fcfcfb" stroke-width="2"/>
<circle cx="506.9" cy="374.3" r="4.5" fill="#1baf7a" stroke="#fcfcfb" stroke-width="2"/>
<circle cx="591.5" cy="364.3" r="4.5" fill="#1baf7a" stroke="#fcfcfb" stroke-width="2"/>
<circle cx="676.1" cy="352.3" r="4.5" fill="#1baf7a" stroke="#fcfcfb" stroke-width="2"/>
<circle cx="760.7" cy="323.8" r="4.5" fill="#fcfcfb" stroke="#1baf7a" stroke-width="2"/>
<circle cx="845.2" cy="148.0" r="4.5" fill="#fcfcfb" stroke="#1baf7a" stroke-width="2"/>
</g>
<circle cx="89" cy="486" r="4.5" fill="#2a78d6"/>
<text x="100" y="490" font-size="11" fill="#52514e">braft, 1 client box</text>
<circle cx="236.7" cy="486" r="4.5" fill="#eb6834"/>
<text x="247.7" y="490" font-size="11" fill="#52514e">braft, 5 client boxes</text>
<circle cx="397.0" cy="486" r="4.5" fill="#1baf7a"/>
<text x="408.0" y="490" font-size="11" fill="#52514e">sequencer, 5 input gateways</text>
</svg>