<svg xmlns="http://www.w3.org/2000/svg" width="900" height="470" viewBox="0 0 900 470" font-family='system-ui,-apple-system,"Segoe UI",sans-serif' role="img" aria-label="sequencer: gateway round trips, p50 vs offered rate">
<rect width="900" height="470" fill="#fcfcfb"/>
<text x="78" y="28" font-size="16" font-weight="600" fill="#0b0b0b">sequencer: gateway round trips, p50 vs offered rate</text>
<text x="78" y="46" font-size="12" fill="#52514e">p50 latency vs offered rate, same fleet and sweep as the panels above. Log latency scale.</text>
<text x="78" y="62" font-size="12" fill="#52514e">At 100k: output: brpc 851 µs; output: gRPC 839 µs; output: WebSocket 849 µs; FIX 4.4 (journal) 1,087 µs; FIX 4.4 (inline) 1,011 µs; braft (raw ops) 793 µs.</text>
<text x="78" y="78" font-size="12" fill="#52514e">Hollow marker = the cluster fell behind the offered rate. Shaded band = at or below 1 ms.</text>
<rect x="78" y="369.6" width="782" height="26.4" fill="#f0efec"/>
<text x="86" y="384.6" font-size="11" fill="#898781">at or below 1 ms</text>
<line x1="78" y1="369.6" x2="860" y2="369.6" stroke="#e1e0d9" stroke-width="1"/>
<text x="68" y="373.6" font-size="11" fill="#898781" text-anchor="end">1 ms</text>
<line x1="78" y1="333.8" x2="860" y2="333.8" stroke="#e1e0d9" stroke-width="1"/>
<text x="68" y="337.8" font-size="11" fill="#898781" text-anchor="end">2 ms</text>
<line x1="78" y1="286.5" x2="860" y2="286.5" stroke="#e1e0d9" stroke-width="1"/>
<text x="68" y="290.5" font-size="11" fill="#898781" text-anchor="end">5 ms</text>
<line x1="78" y1="250.7" x2="860" y2="250.7" stroke="#e1e0d9" stroke-width="1"/>
<text x="68" y="254.7" font-size="11" fill="#898781" text-anchor="end">10 ms</text>
<line x1="78" y1="167.6" x2="860" y2="167.6" stroke="#e1e0d9" stroke-width="1"/>
<text x="68" y="171.6" font-size="11" fill="#898781" text-anchor="end">50 ms</text>
<line x1="78" y1="96.0" x2="860" y2="96.0" stroke="#e1e0d9" stroke-width="1"/>
<text x="68" y="100.0" font-size="11" fill="#898781" text-anchor="end">200 ms</text>
<text x="20" y="246" font-size="11" fill="#52514e" text-anchor="middle" transform="rotate(-90 20 246)">p50 latency, log scale</text>
<line x1="78" y1="396" x2="860" y2="396" stroke="#c3c2b7" stroke-width="1"/>
<line x1="78.0" y1="396" x2="78.0" y2="401" stroke="#c3c2b7" stroke-width="1"/>
<text x="78.0" y="416" font-size="11" fill="#898781" text-anchor="middle">0k</text>
<line x1="156.2" y1="396" x2="156.2" y2="401" stroke="#c3c2b7" stroke-width="1"/>
<text x="156.2" y="416" font-size="11" fill="#898781" text-anchor="middle">50k</text>
<line x1="234.4" y1="396" x2="234.4" y2="401" stroke="#c3c2b7" stroke-width="1"/>
<text x="234.4" y="416" font-size="11" fill="#898781" text-anchor="middle">100k</text>
<line x1="312.6" y1="396" x2="312.6" y2="401" stroke="#c3c2b7" stroke-width="1"/>
<text x="312.6" y="416" font-size="11" fill="#898781" text-anchor="middle">150k</text>
<line x1="390.8" y1="396" x2="390.8" y2="401" stroke="#c3c2b7" stroke-width="1"/>
<text x="390.8" y="416" font-size="11" fill="#898781" text-anchor="middle">200k</text>
<line x1="469.0" y1="396" x2="469.0" y2="401" stroke="#c3c2b7" stroke-width="1"/>
<text x="469.0" y="416" font-size="11" fill="#898781" text-anchor="middle">250k</text>
<line x1="547.2" y1="396" x2="547.2" y2="401" stroke="#c3c2b7" stroke-width="1"/>
<text x="547.2" y="416" font-size="11" fill="#898781" text-anchor="middle">300k</text>
<line x1="625.4" y1="396" x2="625.4" y2="401" stroke="#c3c2b7" stroke-width="1"/>
<text x="625.4" y="416" font-size="11" fill="#898781" text-anchor="middle">350k</text>
<line x1="703.6" y1="396" x2="703.6" y2="401" stroke="#c3c2b7" stroke-width="1"/>
<text x="703.6" y="416" font-size="11" fill="#898781" text-anchor="middle">400k</text>
<line x1="781.8" y1="396" x2="781.8" y2="401" stroke="#c3c2b7" stroke-width="1"/>
<text x="781.8" y="416" font-size="11" fill="#898781" text-anchor="middle">450k</text>
<line x1="860.0" y1="396" x2="860.0" y2="401" stroke="#c3c2b7" stroke-width="1"/>
<text x="860.0" y="416" font-size="11" fill="#898781" text-anchor="middle">500k</text>
<text x="469" y="440" font-size="11" fill="#52514e" text-anchor="middle">offered rate (requests/sec)</text>
<path d="M93.6,389.2 L117.1,389.5 L156.2,386.7 L195.3,382.3 L234.4,378.0 L273.5,374.0 L312.6,371.6 L351.7,369.0 L390.8,365.7 L429.9,364.0 L469.0,361.2 L547.2,349.2 L586.3,221.1 L625.4,127.7 L703.6,121.5 L781.8,115.3 L860.0,109.9" fill="none" stroke="#1baf7a" stroke-width="2" stroke-linejoin="round" stroke-linecap="round"/>
<circle cx="93.6" cy="389.2" r="4.5" fill="#1baf7a" stroke="#fcfcfb" stroke-width="2"/>
<circle cx="117.1" cy="389.5" r="4.5" fill="#1baf7a" stroke="#fcfcfb" stroke-width="2"/>
<circle cx="156.2" cy="386.7" r="4.5" fill="#1baf7a" stroke="#fcfcfb" stroke-width="2"/>
<circle cx="195.3" cy="382.3" r="4.5" fill="#1baf7a" stroke="#fcfcfb" stroke-width="2"/>
<circle cx="234.4" cy="378.0" r="4.5" fill="#1baf7a" stroke="#fcfcfb" stroke-width="2"/>
<circle cx="273.5" cy="374.0" r="4.5" fill="#1baf7a" stroke="#fcfcfb" stroke-width="2"/>
<circle cx="312.6" cy="371.6" r="4.5" fill="#1baf7a" stroke="#fcfcfb" stroke-width="2"/>
<circle cx="351.7" cy="369.0" r="4.5" fill="#1baf7a" stroke="#fcfcfb" stroke-width="2"/>
<circle cx="390.8" cy="365.7" r="4.5" fill="#1baf7a" stroke="#fcfcfb" stroke-width="2"/>
<circle cx="429.9" cy="364.0" r="4.5" fill="#1baf7a" stroke="#fcfcfb" stroke-width="2"/>
<circle cx="469.0" cy="361.2" r="4.5" fill="#1baf7a" stroke="#fcfcfb" stroke-width="2"/>
<circle cx="547.2" cy="349.2" r="4.5" fill="#1baf7a" stroke="#fcfcfb" stroke-width="2"/>
<circle cx="586.3" cy="221.1" r="4.5" fill="#1baf7a" stroke="#fcfcfb" stroke-width="2"/>
<circle cx="625.4" cy="127.7" r="4.5" fill="#fcfcfb" stroke="#1baf7a" stroke-width="2"/>
<circle cx="703.6" cy="121.5" r="4.5" fill="#fcfcfb" stroke="#1baf7a" stroke-width="2"/>
<circle cx="781.8" cy="115.3" r="4.5" fill="#fcfcfb" stroke="#1baf7a" stroke-width="2"/>
<circle cx="860.0" cy="109.9" r="4.5" fill="#fcfcfb" stroke="#1baf7a" stroke-width="2"/>
<path d="M93.6,391.4 L117.1,391.2 L156.2,388.2 L195.3,382.7 L234.4,378.7 L273.5,375.3 L312.6,372.0 L351.7,369.8 L390.8,366.9 L429.9,363.9 L469.0,360.8 L547.2,349.1 L586.3,186.3 L625.4,129.0 L703.6,121.2 L781.8,115.1 L860.0,109.5" fill="none" stroke="#b5179e" stroke-width="2" stroke-linejoin="round" stroke-linecap="round"/>
<circle cx="93.6" cy="391.4" r="4.5" fill="#b5179e" stroke="#fcfcfb" stroke-width="2"/>
<circle cx="117.1" cy="391.2" r="4.5" fill="#b5179e" stroke="#fcfcfb" stroke-width="2"/>
<circle cx="156.2" cy="388.2" r="4.5" fill="#b5179e" stroke="#fcfcfb" stroke-width="2"/>
<circle cx="195.3" cy="382.7" r="4.5" fill="#b5179e" stroke="#fcfcfb" stroke-width="2"/>
<circle cx="234.4" cy="378.7" r="4.5" fill="#b5179e" stroke="#fcfcfb" stroke-width="2"/>
<circle cx="273.5" cy="375.3" r="4.5" fill="#b5179e" stroke="#fcfcfb" stroke-width="2"/>
<circle cx="312.6" cy="372.0" r="4.5" fill="#b5179e" stroke="#fcfcfb" stroke-width="2"/>
<circle cx="351.7" cy="369.8" r="4.5" fill="#b5179e" stroke="#fcfcfb" stroke-width="2"/>
<circle cx="390.8" cy="366.9" r="4.5" fill="#b5179e" stroke="#fcfcfb" stroke-width="2"/>
<circle cx="429.9" cy="363.9" r="4.5" fill="#b5179e" stroke="#fcfcfb" stroke-width="2"/>
<circle cx="469.0" cy="360.8" r="4.5" fill="#b5179e" stroke="#fcfcfb" stroke-width="2"/>
<circle cx="547.2" cy="349.1" r="4.5" fill="#b5179e" stroke="#fcfcfb" stroke-width="2"/>
<circle cx="586.3" cy="186.3" r="4.5" fill="#b5179e" stroke="#fcfcfb" stroke-width="2"/>
<circle cx="625.4" cy="129.0" r="4.5" fill="#fcfcfb" stroke="#b5179e" stroke-width="2"/>
<circle cx="703.6" cy="121.2" r="4.5" fill="#fcfcfb" stroke="#b5179e" stroke-width="2"/>
<circle cx="781.8" cy="115.1" r="4.5" fill="#fcfcfb" stroke="#b5179e" stroke-width="2"/>
<circle cx="860.0" cy="109.5" r="4.5" fill="#fcfcfb" stroke="#b5179e" stroke-width="2"/>
<path d="M93.6,389.8 L117.1,390.4 L156.2,386.9 L195.3,382.5 L234.4,378.1 L273.5,375.1 L312.6,371.5 L351.7,367.7 L390.8,363.4 L429.9,361.9 L469.0,360.9 L547.2,349.2 L586.3,134.9 L625.4,143.9 L703.6,121.7 L781.8,114.9 L860.0,109.2" fill="none" stroke="#6d28d9" stroke-width="2" stroke-linejoin="round" stroke-linecap="round"/>
<circle cx="93.6" cy="389.8" r="4.5" fill="#6d28d9" stroke="#fcfcfb" stroke-width="2"/>
<circle cx="117.1" cy="390.4" r="4.5" fill="#6d28d9" stroke="#fcfcfb" stroke-width="2"/>
<circle cx="156.2" cy="386.9" r="4.5" fill="#6d28d9" stroke="#fcfcfb" stroke-width="2"/>
<circle cx="195.3" cy="382.5" r="4.5" fill="#6d28d9" stroke="#fcfcfb" stroke-width="2"/>
<circle cx="234.4" cy="378.1" r="4.5" fill="#6d28d9" stroke="#fcfcfb" stroke-width="2"/>
<circle cx="273.5" cy="375.1" r="4.5" fill="#6d28d9" stroke="#fcfcfb" stroke-width="2"/>
<circle cx="312.6" cy="371.5" r="4.5" fill="#6d28d9" stroke="#fcfcfb" stroke-width="2"/>
<circle cx="351.7" cy="367.7" r="4.5" fill="#6d28d9" stroke="#fcfcfb" stroke-width="2"/>
<circle cx="390.8" cy="363.4" r="4.5" fill="#6d28d9" stroke="#fcfcfb" stroke-width="2"/>
<circle cx="429.9" cy="361.9" r="4.5" fill="#6d28d9" stroke="#fcfcfb" stroke-width="2"/>
<circle cx="469.0" cy="360.9" r="4.5" fill="#6d28d9" stroke="#fcfcfb" stroke-width="2"/>
<circle cx="547.2" cy="349.2" r="4.5" fill="#6d28d9" stroke="#fcfcfb" stroke-width="2"/>
<circle cx="586.3" cy="134.9" r="4.5" fill="#fcfcfb" stroke="#6d28d9" stroke-width="2"/>
<circle cx="625.4" cy="143.9" r="4.5" fill="#fcfcfb" stroke="#6d28d9" stroke-width="2"/>
<circle cx="703.6" cy="121.7" r="4.5" fill="#fcfcfb" stroke="#6d28d9" stroke-width="2"/>
<circle cx="781.8" cy="114.9" r="4.5" fill="#fcfcfb" stroke="#6d28d9" stroke-width="2"/>
<circle cx="860.0" cy="109.2" r="4.5" fill="#fcfcfb" stroke="#6d28d9" stroke-width="2"/>
<path d="M93.6,386.3 L117.1,376.3 L156.2,369.3 L195.3,367.7 L234.4,365.3 L273.5,361.0 L312.6,356.2 L351.7,347.8 L390.8,339.4 L429.9,330.7 L469.0,323.8 L547.2,321.1 L586.3,312.8 L625.4,307.2 L703.6,221.5 L860.0,123.4" fill="none" stroke="#2a78d6" stroke-width="2" stroke-linejoin="round" stroke-linecap="round"/>
<circle cx="93.6" cy="386.3" r="4.5" fill="#2a78d6" stroke="#fcfcfb" stroke-width="2"/>
<circle cx="117.1" cy="376.3" r="4.5" fill="#2a78d6" stroke="#fcfcfb" stroke-width="2"/>
<circle cx="156.2" cy="369.3" r="4.5" fill="#2a78d6" stroke="#fcfcfb" stroke-width="2"/>
<circle cx="195.3" cy="367.7" r="4.5" fill="#2a78d6" stroke="#fcfcfb" stroke-width="2"/>
<circle cx="234.4" cy="365.3" r="4.5" fill="#2a78d6" stroke="#fcfcfb" stroke-width="2"/>
<circle cx="273.5" cy="361.0" r="4.5" fill="#2a78d6" stroke="#fcfcfb" stroke-width="2"/>
<circle cx="312.6" cy="356.2" r="4.5" fill="#2a78d6" stroke="#fcfcfb" stroke-width="2"/>
<circle cx="351.7" cy="347.8" r="4.5" fill="#2a78d6" stroke="#fcfcfb" stroke-width="2"/>
<circle cx="390.8" cy="339.4" r="4.5" fill="#2a78d6" stroke="#fcfcfb" stroke-width="2"/>
<circle cx="429.9" cy="330.7" r="4.5" fill="#2a78d6" stroke="#fcfcfb" stroke-width="2"/>
<circle cx="469.0" cy="323.8" r="4.5" fill="#2a78d6" stroke="#fcfcfb" stroke-width="2"/>
<circle cx="547.2" cy="321.1" r="4.5" fill="#2a78d6" stroke="#fcfcfb" stroke-width="2"/>
<circle cx="586.3" cy="312.8" r="4.5" fill="#2a78d6" stroke="#fcfcfb" stroke-width="2"/>
<circle cx="625.4" cy="307.2" r="4.5" fill="#2a78d6" stroke="#fcfcfb" stroke-width="2"/>
<circle cx="703.6" cy="221.5" r="4.5" fill="#2a78d6" stroke="#fcfcfb" stroke-width="2"/>
<circle cx="860.0" cy="123.4" r="4.5" fill="#fcfcfb" stroke="#2a78d6" stroke-width="2"/>
<path d="M93.6,390.5 L117.1,385.1 L156.2,379.4 L195.3,374.2 L234.4,369.1 L273.5,355.4 L312.6,333.6 L351.7,314.0 L390.8,307.7 L429.9,303.4 L469.0,296.8 L547.2,288.5 L586.3,274.6 L625.4,131.1 L703.6,122.4 L860.0,108.9" fill="none" stroke="#eb6834" stroke-width="2" stroke-linejoin="round" stroke-linecap="round"/>
<circle cx="93.6" cy="390.5" r="4.5" fill="#eb6834" stroke="#fcfcfb" stroke-width="2"/>
<circle cx="117.1" cy="385.1" r="4.5" fill="#eb6834" stroke="#fcfcfb" stroke-width="2"/>
<circle cx="156.2" cy="379.4" r="4.5" fill="#eb6834" stroke="#fcfcfb" stroke-width="2"/>
<circle cx="195.3" cy="374.2" r="4.5" fill="#eb6834" stroke="#fcfcfb" stroke-width="2"/>
<circle cx="234.4" cy="369.1" r="4.5" fill="#eb6834" stroke="#fcfcfb" stroke-width="2"/>
<circle cx="273.5" cy="355.4" r="4.5" fill="#eb6834" stroke="#fcfcfb" stroke-width="2"/>
<circle cx="312.6" cy="333.6" r="4.5" fill="#eb6834" stroke="#fcfcfb" stroke-width="2"/>
<circle cx="351.7" cy="314.0" r="4.5" fill="#eb6834" stroke="#fcfcfb" stroke-width="2"/>
<circle cx="390.8" cy="307.7" r="4.5" fill="#eb6834" stroke="#fcfcfb" stroke-width="2"/>
<circle cx="429.9" cy="303.4" r="4.5" fill="#eb6834" stroke="#fcfcfb" stroke-width="2"/>
<circle cx="469.0" cy="296.8" r="4.5" fill="#eb6834" stroke="#fcfcfb" stroke-width="2"/>
<circle cx="547.2" cy="288.5" r="4.5" fill="#eb6834" stroke="#fcfcfb" stroke-width="2"/>
<circle cx="586.3" cy="274.6" r="4.5" fill="#eb6834" stroke="#fcfcfb" stroke-width="2"/>
<circle cx="625.4" cy="131.1" r="4.5" fill="#fcfcfb" stroke="#eb6834" stroke-width="2"/>
<circle cx="703.6" cy="122.4" r="4.5" fill="#fcfcfb" stroke="#eb6834" stroke-width="2"/>
<circle cx="860.0" cy="108.9" r="4.5" fill="#fcfcfb" stroke="#eb6834" stroke-width="2"/>
<path d="M93.6,398.4 L117.1,402.5 L156.2,398.5 L195.3,395.1 L234.4,381.6 L273.5,373.3 L312.6,367.2 L351.7,360.9 L390.8,342.4 L429.9,132.0 L469.0,126.5" fill="none" stroke="#52514e" stroke-width="2" stroke-linejoin="round" stroke-linecap="round"/>
<circle cx="93.6" cy="398.4" r="4.5" fill="#52514e" stroke="#fcfcfb" stroke-width="2"/>
<circle cx="117.1" cy="402.5" r="4.5" fill="#52514e" stroke="#fcfcfb" stroke-width="2"/>
<circle cx="156.2" cy="398.5" r="4.5" fill="#52514e" stroke="#fcfcfb" stroke-width="2"/>
<circle cx="195.3" cy="395.1" r="4.5" fill="#52514e" stroke="#fcfcfb" stroke-width="2"/>
<circle cx="234.4" cy="381.6" r="4.5" fill="#52514e" stroke="#fcfcfb" stroke-width="2"/>
<circle cx="273.5" cy="373.3" r="4.5" fill="#52514e" stroke="#fcfcfb" stroke-width="2"/>
<circle cx="312.6" cy="367.2" r="4.5" fill="#52514e" stroke="#fcfcfb" stroke-width="2"/>
<circle cx="351.7" cy="360.9" r="4.5" fill="#52514e" stroke="#fcfcfb" stroke-width="2"/>
<circle cx="390.8" cy="342.4" r="4.5" fill="#52514e" stroke="#fcfcfb" stroke-width="2"/>
<circle cx="429.9" cy="132.0" r="4.5" fill="#fcfcfb" stroke="#52514e" stroke-width="2"/>
<circle cx="469.0" cy="126.5" r="4.5" fill="#fcfcfb" stroke="#52514e" stroke-width="2"/>
<circle cx="83" cy="454" r="4.5" fill="#1baf7a"/>
<text x="94" y="458" font-size="11" fill="#52514e">output: brpc</text>
<circle cx="188.2" cy="454" r="4.5" fill="#b5179e"/>
<text x="199.2" y="458" font-size="11" fill="#52514e">output: gRPC</text>
<circle cx="293.4" cy="454" r="4.5" fill="#6d28d9"/>
<text x="304.4" y="458" font-size="11" fill="#52514e">output: WebSocket</text>
<circle cx="431.59999999999997" cy="454" r="4.5" fill="#2a78d6"/>
<text x="442.59999999999997" y="458" font-size="11" fill="#52514e">FIX 4.4 (journal)</text>
<circle cx="569.8" cy="454" r="4.5" fill="#eb6834"/>
<text x="580.8" y="458" font-size="11" fill="#52514e">FIX 4.4 (inline)</text>
<circle cx="701.4" cy="454" r="4.5" fill="#52514e"/>
<text x="712.4" y="458" font-size="11" fill="#52514e">braft (raw ops)</text>
</svg>