<svg xmlns="http://www.w3.org/2000/svg" width="820" height="440" viewBox="0 0 820 440" font-family='system-ui,-apple-system,"Segoe UI",sans-serif' role="img" aria-label="sequencer-output-brpc — brpc Streaming RPC, sub-1ms to 100k">
<rect width="820" height="440" fill="#fcfcfb"/>
<text x="78" y="28" font-size="16" font-weight="600" fill="#0b0b0b">sequencer-output-brpc — brpc Streaming RPC, sub-1ms to 100k</text>
<text x="78" y="46" font-size="12" fill="#52514e">Per-subscriber ring readers; p50 tracks the relay's own curve to the same 120k ceiling.</text>
<text x="78" y="62" font-size="12" fill="#52514e">p50 and p99 latency, open loop. Hollow marker = the cluster fell behind the offered rate.</text>
<rect x="78" y="86" width="439.1" height="280" fill="#f0efec"/>
<text x="86" y="102" font-size="11" fill="#898781">comfort zone</text>
<line x1="608.5" y1="86" x2="608.5" y2="366" stroke="#898781" stroke-width="1" stroke-dasharray="4 4"/>
<text x="614.5" y="102" font-size="11" font-weight="600" fill="#52514e">rig limit</text>
<line x1="78" y1="366.0" x2="700" y2="366.0" stroke="#e1e0d9" stroke-width="1"/>
<text x="68" y="370.0" font-size="11" fill="#898781" text-anchor="end">500</text>
<line x1="78" y1="329.4" x2="700" y2="329.4" stroke="#e1e0d9" stroke-width="1"/>
<text x="68" y="333.4" font-size="11" fill="#898781" text-anchor="end">1,000</text>
<line x1="78" y1="292.7" x2="700" y2="292.7" stroke="#e1e0d9" stroke-width="1"/>
<text x="68" y="296.7" font-size="11" fill="#898781" text-anchor="end">2,000</text>
<line x1="78" y1="244.3" x2="700" y2="244.3" stroke="#e1e0d9" stroke-width="1"/>
<text x="68" y="248.3" font-size="11" fill="#898781" text-anchor="end">5,000</text>
<line x1="78" y1="207.7" x2="700" y2="207.7" stroke="#e1e0d9" stroke-width="1"/>
<text x="68" y="211.7" font-size="11" fill="#898781" text-anchor="end">10,000</text>
<line x1="78" y1="122.6" x2="700" y2="122.6" stroke="#e1e0d9" stroke-width="1"/>
<text x="68" y="126.6" font-size="11" fill="#898781" text-anchor="end">50,000</text>
<line x1="78" y1="86.0" x2="700" y2="86.0" stroke="#e1e0d9" stroke-width="1"/>
<text x="68" y="90.0" font-size="11" fill="#898781" text-anchor="end">100,000</text>
<text x="20" y="226" font-size="11" fill="#52514e" text-anchor="middle" transform="rotate(-90 20 226)">latency (µs), log scale</text>
<line x1="78" y1="366" x2="700" y2="366" stroke="#c3c2b7" stroke-width="1"/>
<line x1="78.0" y1="366" x2="78.0" y2="371" stroke="#c3c2b7" stroke-width="1"/>
<text x="78.0" y="386" font-size="11" fill="#898781" text-anchor="middle">0k</text>
<line x1="169.5" y1="366" x2="169.5" y2="371" stroke="#c3c2b7" stroke-width="1"/>
<text x="169.5" y="386" font-size="11" fill="#898781" text-anchor="middle">25k</text>
<line x1="260.9" y1="366" x2="260.9" y2="371" stroke="#c3c2b7" stroke-width="1"/>
<text x="260.9" y="386" font-size="11" fill="#898781" text-anchor="middle">50k</text>
<line x1="352.4" y1="366" x2="352.4" y2="371" stroke="#c3c2b7" stroke-width="1"/>
<text x="352.4" y="386" font-size="11" fill="#898781" text-anchor="middle">75k</text>
<line x1="443.9" y1="366" x2="443.9" y2="371" stroke="#c3c2b7" stroke-width="1"/>
<text x="443.9" y="386" font-size="11" fill="#898781" text-anchor="middle">100k</text>
<line x1="535.4" y1="366" x2="535.4" y2="371" stroke="#c3c2b7" stroke-width="1"/>
<text x="535.4" y="386" font-size="11" fill="#898781" text-anchor="middle">125k</text>
<line x1="626.8" y1="366" x2="626.8" y2="371" stroke="#c3c2b7" stroke-width="1"/>
<text x="626.8" y="386" font-size="11" fill="#898781" text-anchor="middle">150k</text>
<text x="389" y="410" font-size="11" fill="#52514e" text-anchor="middle">offered rate (requests/sec)</text>
<defs><clipPath id="plot"><rect x="72" y="80" width="634" height="292"/></clipPath></defs>
<g clip-path="url(#plot)">
<path d="M114.6,344.0 L169.5,298.6 L224.4,310.9 L279.2,313.4 L334.1,289.9 L389.0,276.4 L443.9,183.8 L498.8,161.4 L553.6,163.3 L608.5,3.0 L663.4,-42.9" fill="none" stroke="#eb6834" stroke-width="2" stroke-linejoin="round" stroke-linecap="round"/>
<circle cx="114.6" cy="344.0" r="4.5" fill="#eb6834" stroke="#fcfcfb" stroke-width="2"/>
<circle cx="169.5" cy="298.6" r="4.5" fill="#eb6834" stroke="#fcfcfb" stroke-width="2"/>
<circle cx="224.4" cy="310.9" r="4.5" fill="#eb6834" stroke="#fcfcfb" stroke-width="2"/>
<circle cx="279.2" cy="313.4" r="4.5" fill="#eb6834" stroke="#fcfcfb" stroke-width="2"/>
<circle cx="334.1" cy="289.9" r="4.5" fill="#eb6834" stroke="#fcfcfb" stroke-width="2"/>
<circle cx="389.0" cy="276.4" r="4.5" fill="#eb6834" stroke="#fcfcfb" stroke-width="2"/>
<circle cx="443.9" cy="183.8" r="4.5" fill="#eb6834" stroke="#fcfcfb" stroke-width="2"/>
<circle cx="498.8" cy="161.4" r="4.5" fill="#fcfcfb" stroke="#eb6834" stroke-width="2"/>
<circle cx="553.6" cy="163.3" r="4.5" fill="#eb6834" stroke="#fcfcfb" stroke-width="2"/>
<circle cx="608.5" cy="3.0" r="4.5" fill="#fcfcfb" stroke="#eb6834" stroke-width="2"/>
<circle cx="663.4" cy="-42.9" r="4.5" fill="#fcfcfb" stroke="#eb6834" stroke-width="2"/>
<path d="M114.6,353.0 L169.5,350.5 L224.4,346.4 L279.2,342.5 L334.1,340.4 L389.0,338.7 L443.9,336.2 L498.8,332.6 L553.6,322.8 L608.5,52.2 L663.4,-8.1" fill="none" stroke="#2a78d6" stroke-width="2" stroke-linejoin="round" stroke-linecap="round"/>
<circle cx="114.6" cy="353.0" r="4.5" fill="#2a78d6" stroke="#fcfcfb" stroke-width="2"/>
<circle cx="169.5" cy="350.5" r="4.5" fill="#2a78d6" stroke="#fcfcfb" stroke-width="2"/>
<circle cx="224.4" cy="346.4" r="4.5" fill="#2a78d6" stroke="#fcfcfb" stroke-width="2"/>
<circle cx="279.2" cy="342.5" r="4.5" fill="#2a78d6" stroke="#fcfcfb" stroke-width="2"/>
<circle cx="334.1" cy="340.4" r="4.5" fill="#2a78d6" stroke="#fcfcfb" stroke-width="2"/>
<circle cx="389.0" cy="338.7" r="4.5" fill="#2a78d6" stroke="#fcfcfb" stroke-width="2"/>
<circle cx="443.9" cy="336.2" r="4.5" fill="#2a78d6" stroke="#fcfcfb" stroke-width="2"/>
<circle cx="498.8" cy="332.6" r="4.5" fill="#fcfcfb" stroke="#2a78d6" stroke-width="2"/>
<circle cx="553.6" cy="322.8" r="4.5" fill="#2a78d6" stroke="#fcfcfb" stroke-width="2"/>
<circle cx="608.5" cy="52.2" r="4.5" fill="#fcfcfb" stroke="#2a78d6" stroke-width="2"/>
<circle cx="663.4" cy="-8.1" r="4.5" fill="#fcfcfb" stroke="#2a78d6" stroke-width="2"/>
</g>
<text x="675.4" y="90.0" font-size="12" font-weight="600" fill="#0b0b0b">p99</text>
<text x="675.4" y="90.0" font-size="12" font-weight="600" fill="#0b0b0b">p50</text>
<circle cx="83" cy="424" r="4.5" fill="#2a78d6"/>
<text x="94" y="428" font-size="11" fill="#52514e">p50</text>
<circle cx="128.8" cy="424" r="4.5" fill="#eb6834"/>
<text x="139.8" y="428" font-size="11" fill="#52514e">p99</text>
</svg>