<svg xmlns="http://www.w3.org/2000/svg" width="942" height="640" viewBox="0 0 942 640" font-family='system-ui,-apple-system,"Segoe UI",sans-serif' role="img" aria-label="sequencer: five round trips, p50 and p99">
<rect width="942" height="640" fill="#fcfcfb"/>
<text x="78" y="28" font-size="16" font-weight="600" fill="#0b0b0b">sequencer: five round trips, p50 and p99</text>
<text x="78" y="46" font-size="12" fill="#52514e">Every hop this repo measures, same fleet and same sweep. Identical axes across panels; log latency scale.</text>
<text x="78" y="62" font-size="12" fill="#52514e">Hollow marker = the cluster fell behind the offered rate. Shaded band = at or below 1 ms.</text>
<text x="78" y="78" font-size="12" fill="#52514e">Past the knee, latency runs to whole seconds; those points clip at the panel top.</text>
<defs>
<clipPath id="pan0"><rect x="56" y="98" width="280" height="208"/></clipPath>
<clipPath id="pan1"><rect x="350" y="98" width="280" height="208"/></clipPath>
<clipPath id="pan2"><rect x="644" y="98" width="280" height="208"/></clipPath>
<clipPath id="pan3"><rect x="56" y="352" width="280" height="208"/></clipPath>
<clipPath id="pan4"><rect x="350" y="352" width="280" height="208"/></clipPath>
</defs>
<rect x="62" y="277.3" width="268" height="22.7" fill="#f0efec"/>
<line x1="62" y1="277.3" x2="330" y2="277.3" stroke="#e1e0d9" stroke-width="1"/>
<text x="54" y="281.3" font-size="10" fill="#898781" text-anchor="end">1 ms</text>
<line x1="62" y1="202.0" x2="330" y2="202.0" stroke="#e1e0d9" stroke-width="1"/>
<text x="54" y="206.0" font-size="10" fill="#898781" text-anchor="end">10 ms</text>
<line x1="62" y1="126.7" x2="330" y2="126.7" stroke="#e1e0d9" stroke-width="1"/>
<text x="54" y="130.7" font-size="10" fill="#898781" text-anchor="end">100 ms</text>
<line x1="62" y1="300" x2="330" y2="300" stroke="#c3c2b7" stroke-width="1"/>
<line x1="62.0" y1="300" x2="62.0" y2="304" stroke="#c3c2b7" stroke-width="1"/>
<text x="62.0" y="317" font-size="10" fill="#898781" text-anchor="middle">0k</text>
<line x1="165.1" y1="300" x2="165.1" y2="304" stroke="#c3c2b7" stroke-width="1"/>
<text x="165.1" y="317" font-size="10" fill="#898781" text-anchor="middle">50k</text>
<line x1="268.2" y1="300" x2="268.2" y2="304" stroke="#c3c2b7" stroke-width="1"/>
<text x="268.2" y="317" font-size="10" fill="#898781" text-anchor="middle">100k</text>
<text x="62" y="96" font-size="12" font-weight="600" fill="#0b0b0b">synchronous ack</text>
<g clip-path="url(#pan0)">
<path d="M82.6,295.0 L113.5,286.9 L144.5,235.3 L175.4,225.0 L206.3,224.8 L237.2,224.6 L268.2,223.6 L288.8,223.3 L299.1,222.8 L309.4,222.6 L319.7,220.0 L330.0,208.3" fill="none" stroke="#eb6834" stroke-width="2" stroke-linejoin="round" stroke-linecap="round"/>
<circle cx="82.6" cy="295.0" r="4.5" fill="#eb6834" stroke="#fcfcfb" stroke-width="2"/>
<circle cx="113.5" cy="286.9" r="4.5" fill="#eb6834" stroke="#fcfcfb" stroke-width="2"/>
<circle cx="144.5" cy="235.3" r="4.5" fill="#eb6834" stroke="#fcfcfb" stroke-width="2"/>
<circle cx="175.4" cy="225.0" r="4.5" fill="#eb6834" stroke="#fcfcfb" stroke-width="2"/>
<circle cx="206.3" cy="224.8" r="4.5" fill="#eb6834" stroke="#fcfcfb" stroke-width="2"/>
<circle cx="237.2" cy="224.6" r="4.5" fill="#eb6834" stroke="#fcfcfb" stroke-width="2"/>
<circle cx="268.2" cy="223.6" r="4.5" fill="#eb6834" stroke="#fcfcfb" stroke-width="2"/>
<circle cx="288.8" cy="223.3" r="4.5" fill="#eb6834" stroke="#fcfcfb" stroke-width="2"/>
<circle cx="299.1" cy="222.8" r="4.5" fill="#eb6834" stroke="#fcfcfb" stroke-width="2"/>
<circle cx="309.4" cy="222.6" r="4.5" fill="#eb6834" stroke="#fcfcfb" stroke-width="2"/>
<circle cx="319.7" cy="220.0" r="4.5" fill="#eb6834" stroke="#fcfcfb" stroke-width="2"/>
<circle cx="330.0" cy="208.3" r="4.5" fill="#eb6834" stroke="#fcfcfb" stroke-width="2"/>
<path d="M82.6,296.3 L113.5,292.1 L144.5,290.2 L175.4,287.2 L206.3,274.4 L237.2,269.0 L268.2,267.0 L288.8,267.7 L299.1,265.2 L309.4,263.6 L319.7,258.0 L330.0,244.0" fill="none" stroke="#2a78d6" stroke-width="2" stroke-linejoin="round" stroke-linecap="round"/>
<circle cx="82.6" cy="296.3" r="4.5" fill="#2a78d6" stroke="#fcfcfb" stroke-width="2"/>
<circle cx="113.5" cy="292.1" r="4.5" fill="#2a78d6" stroke="#fcfcfb" stroke-width="2"/>
<circle cx="144.5" cy="290.2" r="4.5" fill="#2a78d6" stroke="#fcfcfb" stroke-width="2"/>
<circle cx="175.4" cy="287.2" r="4.5" fill="#2a78d6" stroke="#fcfcfb" stroke-width="2"/>
<circle cx="206.3" cy="274.4" r="4.5" fill="#2a78d6" stroke="#fcfcfb" stroke-width="2"/>
<circle cx="237.2" cy="269.0" r="4.5" fill="#2a78d6" stroke="#fcfcfb" stroke-width="2"/>
<circle cx="268.2" cy="267.0" r="4.5" fill="#2a78d6" stroke="#fcfcfb" stroke-width="2"/>
<circle cx="288.8" cy="267.7" r="4.5" fill="#2a78d6" stroke="#fcfcfb" stroke-width="2"/>
<circle cx="299.1" cy="265.2" r="4.5" fill="#2a78d6" stroke="#fcfcfb" stroke-width="2"/>
<circle cx="309.4" cy="263.6" r="4.5" fill="#2a78d6" stroke="#fcfcfb" stroke-width="2"/>
<circle cx="319.7" cy="258.0" r="4.5" fill="#2a78d6" stroke="#fcfcfb" stroke-width="2"/>
<circle cx="330.0" cy="244.0" r="4.5" fill="#2a78d6" stroke="#fcfcfb" stroke-width="2"/>
</g>
<rect x="356" y="277.3" width="268" height="22.7" fill="#f0efec"/>
<line x1="356" y1="277.3" x2="624" y2="277.3" stroke="#e1e0d9" stroke-width="1"/>
<line x1="356" y1="202.0" x2="624" y2="202.0" stroke="#e1e0d9" stroke-width="1"/>
<line x1="356" y1="126.7" x2="624" y2="126.7" stroke="#e1e0d9" stroke-width="1"/>
<line x1="356" y1="300" x2="624" y2="300" stroke="#c3c2b7" stroke-width="1"/>
<line x1="356.0" y1="300" x2="356.0" y2="304" stroke="#c3c2b7" stroke-width="1"/>
<text x="356.0" y="317" font-size="10" fill="#898781" text-anchor="middle">0k</text>
<line x1="459.1" y1="300" x2="459.1" y2="304" stroke="#c3c2b7" stroke-width="1"/>
<text x="459.1" y="317" font-size="10" fill="#898781" text-anchor="middle">50k</text>
<line x1="562.2" y1="300" x2="562.2" y2="304" stroke="#c3c2b7" stroke-width="1"/>
<text x="562.2" y="317" font-size="10" fill="#898781" text-anchor="middle">100k</text>
<text x="356" y="96" font-size="12" font-weight="600" fill="#0b0b0b">relay (gRPC)</text>
<g clip-path="url(#pan1)">
<path d="M376.6,283.5 L407.5,251.6 L438.5,243.1 L469.4,253.2 L500.3,248.3 L531.2,248.2 L562.2,250.0 L582.8,247.5 L593.1,245.3 L603.4,237.0 L613.7,102.0 L624.0,35.5" fill="none" stroke="#eb6834" stroke-width="2" stroke-linejoin="round" stroke-linecap="round"/>
<circle cx="376.6" cy="283.5" r="4.5" fill="#eb6834" stroke="#fcfcfb" stroke-width="2"/>
<circle cx="407.5" cy="251.6" r="4.5" fill="#eb6834" stroke="#fcfcfb" stroke-width="2"/>
<circle cx="438.5" cy="243.1" r="4.5" fill="#eb6834" stroke="#fcfcfb" stroke-width="2"/>
<circle cx="469.4" cy="253.2" r="4.5" fill="#eb6834" stroke="#fcfcfb" stroke-width="2"/>
<circle cx="500.3" cy="248.3" r="4.5" fill="#eb6834" stroke="#fcfcfb" stroke-width="2"/>
<circle cx="531.2" cy="248.2" r="4.5" fill="#eb6834" stroke="#fcfcfb" stroke-width="2"/>
<circle cx="562.2" cy="250.0" r="4.5" fill="#eb6834" stroke="#fcfcfb" stroke-width="2"/>
<circle cx="582.8" cy="247.5" r="4.5" fill="#eb6834" stroke="#fcfcfb" stroke-width="2"/>
<circle cx="593.1" cy="245.3" r="4.5" fill="#eb6834" stroke="#fcfcfb" stroke-width="2"/>
<circle cx="603.4" cy="237.0" r="4.5" fill="#eb6834" stroke="#fcfcfb" stroke-width="2"/>
<circle cx="613.7" cy="102.0" r="4.5" fill="#eb6834" stroke="#fcfcfb" stroke-width="2"/>
<circle cx="624.0" cy="35.5" r="4.5" fill="#fcfcfb" stroke="#eb6834" stroke-width="2"/>
<path d="M376.6,290.5 L407.5,286.5 L438.5,283.4 L469.4,283.3 L500.3,281.0 L531.2,279.8 L562.2,277.8 L582.8,276.7 L593.1,274.5 L603.4,270.3 L613.7,114.3 L624.0,51.4" fill="none" stroke="#2a78d6" stroke-width="2" stroke-linejoin="round" stroke-linecap="round"/>
<circle cx="376.6" cy="290.5" r="4.5" fill="#2a78d6" stroke="#fcfcfb" stroke-width="2"/>
<circle cx="407.5" cy="286.5" r="4.5" fill="#2a78d6" stroke="#fcfcfb" stroke-width="2"/>
<circle cx="438.5" cy="283.4" r="4.5" fill="#2a78d6" stroke="#fcfcfb" stroke-width="2"/>
<circle cx="469.4" cy="283.3" r="4.5" fill="#2a78d6" stroke="#fcfcfb" stroke-width="2"/>
<circle cx="500.3" cy="281.0" r="4.5" fill="#2a78d6" stroke="#fcfcfb" stroke-width="2"/>
<circle cx="531.2" cy="279.8" r="4.5" fill="#2a78d6" stroke="#fcfcfb" stroke-width="2"/>
<circle cx="562.2" cy="277.8" r="4.5" fill="#2a78d6" stroke="#fcfcfb" stroke-width="2"/>
<circle cx="582.8" cy="276.7" r="4.5" fill="#2a78d6" stroke="#fcfcfb" stroke-width="2"/>
<circle cx="593.1" cy="274.5" r="4.5" fill="#2a78d6" stroke="#fcfcfb" stroke-width="2"/>
<circle cx="603.4" cy="270.3" r="4.5" fill="#2a78d6" stroke="#fcfcfb" stroke-width="2"/>
<circle cx="613.7" cy="114.3" r="4.5" fill="#2a78d6" stroke="#fcfcfb" stroke-width="2"/>
<circle cx="624.0" cy="51.4" r="4.5" fill="#fcfcfb" stroke="#2a78d6" stroke-width="2"/>
</g>
<rect x="650" y="277.3" width="268" height="22.7" fill="#f0efec"/>
<line x1="650" y1="277.3" x2="918" y2="277.3" stroke="#e1e0d9" stroke-width="1"/>
<line x1="650" y1="202.0" x2="918" y2="202.0" stroke="#e1e0d9" stroke-width="1"/>
<line x1="650" y1="126.7" x2="918" y2="126.7" stroke="#e1e0d9" stroke-width="1"/>
<line x1="650" y1="300" x2="918" y2="300" stroke="#c3c2b7" stroke-width="1"/>
<line x1="650.0" y1="300" x2="650.0" y2="304" stroke="#c3c2b7" stroke-width="1"/>
<text x="650.0" y="317" font-size="10" fill="#898781" text-anchor="middle">0k</text>
<line x1="753.1" y1="300" x2="753.1" y2="304" stroke="#c3c2b7" stroke-width="1"/>
<text x="753.1" y="317" font-size="10" fill="#898781" text-anchor="middle">50k</text>
<line x1="856.2" y1="300" x2="856.2" y2="304" stroke="#c3c2b7" stroke-width="1"/>
<text x="856.2" y="317" font-size="10" fill="#898781" text-anchor="middle">100k</text>
<text x="650" y="96" font-size="12" font-weight="600" fill="#0b0b0b">output: brpc</text>
<g clip-path="url(#pan2)">
<path d="M670.6,288.7 L701.5,251.9 L732.5,263.1 L763.4,264.3 L794.3,264.3 L825.2,261.6 L856.2,249.8 L876.8,245.5 L887.1,244.5 L897.4,242.0 L907.7,208.4 L918.0,52.0" fill="none" stroke="#eb6834" stroke-width="2" stroke-linejoin="round" stroke-linecap="round"/>
<circle cx="670.6" cy="288.7" r="4.5" fill="#eb6834" stroke="#fcfcfb" stroke-width="2"/>
<circle cx="701.5" cy="251.9" r="4.5" fill="#eb6834" stroke="#fcfcfb" stroke-width="2"/>
<circle cx="732.5" cy="263.1" r="4.5" fill="#eb6834" stroke="#fcfcfb" stroke-width="2"/>
<circle cx="763.4" cy="264.3" r="4.5" fill="#eb6834" stroke="#fcfcfb" stroke-width="2"/>
<circle cx="794.3" cy="264.3" r="4.5" fill="#eb6834" stroke="#fcfcfb" stroke-width="2"/>
<circle cx="825.2" cy="261.6" r="4.5" fill="#eb6834" stroke="#fcfcfb" stroke-width="2"/>
<circle cx="856.2" cy="249.8" r="4.5" fill="#eb6834" stroke="#fcfcfb" stroke-width="2"/>
<circle cx="876.8" cy="245.5" r="4.5" fill="#eb6834" stroke="#fcfcfb" stroke-width="2"/>
<circle cx="887.1" cy="244.5" r="4.5" fill="#eb6834" stroke="#fcfcfb" stroke-width="2"/>
<circle cx="897.4" cy="242.0" r="4.5" fill="#eb6834" stroke="#fcfcfb" stroke-width="2"/>
<circle cx="907.7" cy="208.4" r="4.5" fill="#eb6834" stroke="#fcfcfb" stroke-width="2"/>
<circle cx="918.0" cy="52.0" r="4.5" fill="#fcfcfb" stroke="#eb6834" stroke-width="2"/>
<path d="M670.6,294.6 L701.5,291.5 L732.5,289.2 L763.4,287.5 L794.3,286.2 L825.2,284.4 L856.2,282.9 L876.8,281.0 L887.1,279.9 L897.4,276.1 L907.7,263.6 L918.0,69.5" fill="none" stroke="#2a78d6" stroke-width="2" stroke-linejoin="round" stroke-linecap="round"/>
<circle cx="670.6" cy="294.6" r="4.5" fill="#2a78d6" stroke="#fcfcfb" stroke-width="2"/>
<circle cx="701.5" cy="291.5" r="4.5" fill="#2a78d6" stroke="#fcfcfb" stroke-width="2"/>
<circle cx="732.5" cy="289.2" r="4.5" fill="#2a78d6" stroke="#fcfcfb" stroke-width="2"/>
<circle cx="763.4" cy="287.5" r="4.5" fill="#2a78d6" stroke="#fcfcfb" stroke-width="2"/>
<circle cx="794.3" cy="286.2" r="4.5" fill="#2a78d6" stroke="#fcfcfb" stroke-width="2"/>
<circle cx="825.2" cy="284.4" r="4.5" fill="#2a78d6" stroke="#fcfcfb" stroke-width="2"/>
<circle cx="856.2" cy="282.9" r="4.5" fill="#2a78d6" stroke="#fcfcfb" stroke-width="2"/>
<circle cx="876.8" cy="281.0" r="4.5" fill="#2a78d6" stroke="#fcfcfb" stroke-width="2"/>
<circle cx="887.1" cy="279.9" r="4.5" fill="#2a78d6" stroke="#fcfcfb" stroke-width="2"/>
<circle cx="897.4" cy="276.1" r="4.5" fill="#2a78d6" stroke="#fcfcfb" stroke-width="2"/>
<circle cx="907.7" cy="263.6" r="4.5" fill="#2a78d6" stroke="#fcfcfb" stroke-width="2"/>
<circle cx="918.0" cy="69.5" r="4.5" fill="#fcfcfb" stroke="#2a78d6" stroke-width="2"/>
</g>
<rect x="62" y="531.3" width="268" height="22.7" fill="#f0efec"/>
<line x1="62" y1="531.3" x2="330" y2="531.3" stroke="#e1e0d9" stroke-width="1"/>
<text x="54" y="535.3" font-size="10" fill="#898781" text-anchor="end">1 ms</text>
<line x1="62" y1="456.0" x2="330" y2="456.0" stroke="#e1e0d9" stroke-width="1"/>
<text x="54" y="460.0" font-size="10" fill="#898781" text-anchor="end">10 ms</text>
<line x1="62" y1="380.7" x2="330" y2="380.7" stroke="#e1e0d9" stroke-width="1"/>
<text x="54" y="384.7" font-size="10" fill="#898781" text-anchor="end">100 ms</text>
<line x1="62" y1="554" x2="330" y2="554" stroke="#c3c2b7" stroke-width="1"/>
<line x1="62.0" y1="554" x2="62.0" y2="558" stroke="#c3c2b7" stroke-width="1"/>
<text x="62.0" y="571" font-size="10" fill="#898781" text-anchor="middle">0k</text>
<line x1="165.1" y1="554" x2="165.1" y2="558" stroke="#c3c2b7" stroke-width="1"/>
<text x="165.1" y="571" font-size="10" fill="#898781" text-anchor="middle">50k</text>
<line x1="268.2" y1="554" x2="268.2" y2="558" stroke="#c3c2b7" stroke-width="1"/>
<text x="268.2" y="571" font-size="10" fill="#898781" text-anchor="middle">100k</text>
<text x="62" y="350" font-size="12" font-weight="600" fill="#0b0b0b">output: gRPC</text>
<g clip-path="url(#pan3)">
<path d="M82.6,544.1 L113.5,498.9 L144.5,503.0 L175.4,519.0 L206.3,519.1 L237.2,518.2 L268.2,516.0 L288.8,511.2 L299.1,503.1 L309.4,398.9 L319.7,320.1 L330.0,288.5" fill="none" stroke="#eb6834" stroke-width="2" stroke-linejoin="round" stroke-linecap="round"/>
<circle cx="82.6" cy="544.1" r="4.5" fill="#eb6834" stroke="#fcfcfb" stroke-width="2"/>
<circle cx="113.5" cy="498.9" r="4.5" fill="#eb6834" stroke="#fcfcfb" stroke-width="2"/>
<circle cx="144.5" cy="503.0" r="4.5" fill="#eb6834" stroke="#fcfcfb" stroke-width="2"/>
<circle cx="175.4" cy="519.0" r="4.5" fill="#eb6834" stroke="#fcfcfb" stroke-width="2"/>
<circle cx="206.3" cy="519.1" r="4.5" fill="#eb6834" stroke="#fcfcfb" stroke-width="2"/>
<circle cx="237.2" cy="518.2" r="4.5" fill="#eb6834" stroke="#fcfcfb" stroke-width="2"/>
<circle cx="268.2" cy="516.0" r="4.5" fill="#eb6834" stroke="#fcfcfb" stroke-width="2"/>
<circle cx="288.8" cy="511.2" r="4.5" fill="#eb6834" stroke="#fcfcfb" stroke-width="2"/>
<circle cx="299.1" cy="503.1" r="4.5" fill="#eb6834" stroke="#fcfcfb" stroke-width="2"/>
<circle cx="309.4" cy="398.9" r="4.5" fill="#eb6834" stroke="#fcfcfb" stroke-width="2"/>
<circle cx="319.7" cy="320.1" r="4.5" fill="#fcfcfb" stroke="#eb6834" stroke-width="2"/>
<circle cx="330.0" cy="288.5" r="4.5" fill="#fcfcfb" stroke="#eb6834" stroke-width="2"/>
<path d="M82.6,549.1 L113.5,545.0 L144.5,542.6 L175.4,540.5 L206.3,539.3 L237.2,538.1 L268.2,536.6 L288.8,533.8 L299.1,530.9 L309.4,427.1 L319.7,337.0 L330.0,308.8" fill="none" stroke="#2a78d6" stroke-width="2" stroke-linejoin="round" stroke-linecap="round"/>
<circle cx="82.6" cy="549.1" r="4.5" fill="#2a78d6" stroke="#fcfcfb" stroke-width="2"/>
<circle cx="113.5" cy="545.0" r="4.5" fill="#2a78d6" stroke="#fcfcfb" stroke-width="2"/>
<circle cx="144.5" cy="542.6" r="4.5" fill="#2a78d6" stroke="#fcfcfb" stroke-width="2"/>
<circle cx="175.4" cy="540.5" r="4.5" fill="#2a78d6" stroke="#fcfcfb" stroke-width="2"/>
<circle cx="206.3" cy="539.3" r="4.5" fill="#2a78d6" stroke="#fcfcfb" stroke-width="2"/>
<circle cx="237.2" cy="538.1" r="4.5" fill="#2a78d6" stroke="#fcfcfb" stroke-width="2"/>
<circle cx="268.2" cy="536.6" r="4.5" fill="#2a78d6" stroke="#fcfcfb" stroke-width="2"/>
<circle cx="288.8" cy="533.8" r="4.5" fill="#2a78d6" stroke="#fcfcfb" stroke-width="2"/>
<circle cx="299.1" cy="530.9" r="4.5" fill="#2a78d6" stroke="#fcfcfb" stroke-width="2"/>
<circle cx="309.4" cy="427.1" r="4.5" fill="#2a78d6" stroke="#fcfcfb" stroke-width="2"/>
<circle cx="319.7" cy="337.0" r="4.5" fill="#fcfcfb" stroke="#2a78d6" stroke-width="2"/>
<circle cx="330.0" cy="308.8" r="4.5" fill="#fcfcfb" stroke="#2a78d6" stroke-width="2"/>
</g>
<rect x="356" y="531.3" width="268" height="22.7" fill="#f0efec"/>
<line x1="356" y1="531.3" x2="624" y2="531.3" stroke="#e1e0d9" stroke-width="1"/>
<line x1="356" y1="456.0" x2="624" y2="456.0" stroke="#e1e0d9" stroke-width="1"/>
<line x1="356" y1="380.7" x2="624" y2="380.7" stroke="#e1e0d9" stroke-width="1"/>
<line x1="356" y1="554" x2="624" y2="554" stroke="#c3c2b7" stroke-width="1"/>
<line x1="356.0" y1="554" x2="356.0" y2="558" stroke="#c3c2b7" stroke-width="1"/>
<text x="356.0" y="571" font-size="10" fill="#898781" text-anchor="middle">0k</text>
<line x1="459.1" y1="554" x2="459.1" y2="558" stroke="#c3c2b7" stroke-width="1"/>
<text x="459.1" y="571" font-size="10" fill="#898781" text-anchor="middle">50k</text>
<line x1="562.2" y1="554" x2="562.2" y2="558" stroke="#c3c2b7" stroke-width="1"/>
<text x="562.2" y="571" font-size="10" fill="#898781" text-anchor="middle">100k</text>
<text x="356" y="350" font-size="12" font-weight="600" fill="#0b0b0b">output: WebSocket</text>
<g clip-path="url(#pan4)">
<path d="M376.6,540.7 L407.5,507.8 L438.5,496.2 L469.4,487.7 L500.3,484.4 L531.2,481.1 L562.2,485.4 L582.8,485.5 L593.1,484.4 L603.4,486.8 L613.7,479.1 L624.0,370.6" fill="none" stroke="#eb6834" stroke-width="2" stroke-linejoin="round" stroke-linecap="round"/>
<circle cx="376.6" cy="540.7" r="4.5" fill="#eb6834" stroke="#fcfcfb" stroke-width="2"/>
<circle cx="407.5" cy="507.8" r="4.5" fill="#eb6834" stroke="#fcfcfb" stroke-width="2"/>
<circle cx="438.5" cy="496.2" r="4.5" fill="#eb6834" stroke="#fcfcfb" stroke-width="2"/>
<circle cx="469.4" cy="487.7" r="4.5" fill="#eb6834" stroke="#fcfcfb" stroke-width="2"/>
<circle cx="500.3" cy="484.4" r="4.5" fill="#eb6834" stroke="#fcfcfb" stroke-width="2"/>
<circle cx="531.2" cy="481.1" r="4.5" fill="#eb6834" stroke="#fcfcfb" stroke-width="2"/>
<circle cx="562.2" cy="485.4" r="4.5" fill="#eb6834" stroke="#fcfcfb" stroke-width="2"/>
<circle cx="582.8" cy="485.5" r="4.5" fill="#eb6834" stroke="#fcfcfb" stroke-width="2"/>
<circle cx="593.1" cy="484.4" r="4.5" fill="#eb6834" stroke="#fcfcfb" stroke-width="2"/>
<circle cx="603.4" cy="486.8" r="4.5" fill="#eb6834" stroke="#fcfcfb" stroke-width="2"/>
<circle cx="613.7" cy="479.1" r="4.5" fill="#eb6834" stroke="#fcfcfb" stroke-width="2"/>
<circle cx="624.0" cy="370.6" r="4.5" fill="#eb6834" stroke="#fcfcfb" stroke-width="2"/>
<path d="M376.6,545.7 L407.5,542.7 L438.5,540.4 L469.4,538.2 L500.3,535.4 L531.2,533.7 L562.2,532.1 L582.8,530.7 L593.1,529.7 L603.4,527.6 L613.7,517.6 L624.0,399.7" fill="none" stroke="#2a78d6" stroke-width="2" stroke-linejoin="round" stroke-linecap="round"/>
<circle cx="376.6" cy="545.7" r="4.5" fill="#2a78d6" stroke="#fcfcfb" stroke-width="2"/>
<circle cx="407.5" cy="542.7" r="4.5" fill="#2a78d6" stroke="#fcfcfb" stroke-width="2"/>
<circle cx="438.5" cy="540.4" r="4.5" fill="#2a78d6" stroke="#fcfcfb" stroke-width="2"/>
<circle cx="469.4" cy="538.2" r="4.5" fill="#2a78d6" stroke="#fcfcfb" stroke-width="2"/>
<circle cx="500.3" cy="535.4" r="4.5" fill="#2a78d6" stroke="#fcfcfb" stroke-width="2"/>
<circle cx="531.2" cy="533.7" r="4.5" fill="#2a78d6" stroke="#fcfcfb" stroke-width="2"/>
<circle cx="562.2" cy="532.1" r="4.5" fill="#2a78d6" stroke="#fcfcfb" stroke-width="2"/>
<circle cx="582.8" cy="530.7" r="4.5" fill="#2a78d6" stroke="#fcfcfb" stroke-width="2"/>
<circle cx="593.1" cy="529.7" r="4.5" fill="#2a78d6" stroke="#fcfcfb" stroke-width="2"/>
<circle cx="603.4" cy="527.6" r="4.5" fill="#2a78d6" stroke="#fcfcfb" stroke-width="2"/>
<circle cx="613.7" cy="517.6" r="4.5" fill="#2a78d6" stroke="#fcfcfb" stroke-width="2"/>
<circle cx="624.0" cy="399.7" r="4.5" fill="#2a78d6" stroke="#fcfcfb" stroke-width="2"/>
</g>
<text x="20" y="329" font-size="11" fill="#52514e" text-anchor="middle" transform="rotate(-90 20 329)">latency, log scale</text>
<text x="490" y="594" font-size="11" fill="#52514e" text-anchor="middle">offered rate (requests/sec)</text>
<circle cx="67" cy="624" r="4.5" fill="#2a78d6"/>
<text x="78" y="628" font-size="11" fill="#52514e">p50</text>
<circle cx="112.8" cy="624" r="4.5" fill="#eb6834"/>
<text x="123.8" y="628" font-size="11" fill="#52514e">p99</text>
</svg>